<?xml version="1.0" standalone="no"?>
<!DOCTYPE svg PUBLIC "-//W3C//DTD SVG 20010904//EN"
 "http://www.w3.org/TR/2001/REC-SVG-20010904/DTD/svg10.dtd">
<svg version="1.0" xmlns="http://www.w3.org/2000/svg"
 width="200.000000pt" height="200.000000pt" viewBox="0 0 200.000000 200.000000"
 preserveAspectRatio="xMidYMid meet">

<g transform="translate(0.000000,200.000000) scale(0.100000,-0.100000)"
fill="#000000" stroke="none">
<path d="M811 1236 c-8 -9 -11 -55 -9 -137 l3 -124 77 -3 77 -3 4 -32 4 -32 1
33 c2 28 5 32 31 32 26 0 30 -4 34 -32 l4 -33 1 32 2 32 78 3 77 3 3 124 c2
82 -1 128 -9 137 -9 11 -50 14 -189 14 -139 0 -180 -3 -189 -14z m377 -128 l3
-128 -191 0 -190 0 0 123 c0 68 3 127 7 131 4 3 88 5 187 4 l181 -3 3 -127z"/>
<path d="M997 1113 c-15 -37 -25 -68 -23 -70 2 -2 16 26 30 63 15 36 25 68 23
70 -2 2 -16 -26 -30 -63z"/>
<path d="M908 1144 c-38 -20 -36 -28 2 -9 17 9 30 18 30 20 0 7 -1 6 -32 -11z"/>
<path d="M1060 1156 c0 -3 14 -12 30 -21 17 -9 30 -13 30 -11 0 3 -13 12 -30
21 -16 9 -30 13 -30 11z"/>
<path d="M856 1111 c-3 -5 1 -11 9 -14 9 -4 12 -1 8 9 -6 16 -10 17 -17 5z"/>
<path d="M1127 1106 c-4 -10 -1 -13 8 -9 8 3 12 9 9 14 -7 12 -11 11 -17 -5z"/>
<path d="M904 1076 c11 -9 24 -16 30 -16 12 0 7 5 -24 19 -24 11 -24 11 -6 -3z"/>
<path d="M1080 1075 c-14 -8 -20 -14 -14 -15 5 0 19 7 30 15 24 18 16 19 -16
0z"/>
<path d="M700 841 c-11 -22 -13 -64 -4 -98 5 -17 14 -23 35 -23 16 0 29 4 29
9 0 5 3 16 6 25 3 9 2 16 -4 16 -5 0 -12 -9 -15 -21 -11 -41 -32 -14 -32 41 0
55 21 82 32 41 5 -18 23 -31 23 -15 0 18 -24 44 -40 44 -11 0 -24 -9 -30 -19z"/>
<path d="M900 841 c0 -10 -9 -21 -21 -24 -17 -5 -20 -12 -17 -49 3 -39 6 -43
31 -46 l27 -3 0 70 c0 41 -4 71 -10 71 -5 0 -10 -8 -10 -19z m0 -71 c0 -22 -4
-40 -10 -40 -5 0 -10 18 -10 40 0 22 5 40 10 40 6 0 10 -18 10 -40z"/>
<path d="M1013 847 c3 -8 8 -39 12 -70 4 -32 11 -57 15 -57 9 0 20 36 20 68 0
37 17 17 24 -29 9 -54 18 -43 32 37 12 74 2 88 -12 17 l-10 -48 -8 48 c-5 26
-12 47 -17 47 -4 0 -11 -21 -15 -47 -5 -38 -9 -44 -15 -28 -4 11 -8 32 -8 48
-1 15 -6 27 -12 27 -6 0 -9 -6 -6 -13z"/>
<path d="M790 800 c-6 -12 -8 -34 -5 -51 5 -24 12 -29 28 -27 19 3 22 10 22
48 0 34 -4 46 -17 48 -9 2 -22 -6 -28 -18z m36 -46 c-4 -13 -11 -24 -16 -24
-11 0 -14 63 -3 74 12 11 25 -24 19 -50z"/>
<path d="M944 807 c-3 -8 -4 -30 -2 -49 2 -25 8 -34 26 -36 16 -3 22 2 22 15
0 15 -2 16 -10 3 -7 -11 -12 -12 -21 -3 -15 15 -3 33 21 33 16 0 18 4 11 23
-10 26 -39 35 -47 14z m36 -18 c0 -5 -7 -9 -15 -9 -9 0 -12 6 -9 15 6 15 24
11 24 -6z"/>
<path d="M1153 770 c0 -30 2 -43 4 -27 2 15 2 39 0 55 -2 15 -4 2 -4 -28z"/>
<path d="M1184 805 c-4 -10 3 -26 16 -40 26 -27 20 -46 -6 -24 -15 12 -17 12
-12 -1 2 -8 14 -16 26 -18 18 -3 22 2 22 23 0 14 -7 28 -15 31 -8 4 -15 13
-15 21 0 13 2 13 17 2 14 -12 16 -12 11 1 -7 21 -37 25 -44 5z"/>
<path d="M1254 806 c-3 -8 -4 -29 -2 -48 2 -25 8 -34 24 -36 12 -2 24 4 27 12
4 9 2 16 -3 16 -6 0 -10 -4 -10 -10 0 -5 -4 -10 -10 -10 -5 0 -10 9 -10 20 0
13 7 20 20 20 21 0 24 8 14 34 -8 20 -43 21 -50 2z m36 -17 c0 -5 -4 -9 -10
-9 -5 0 -10 7 -10 16 0 8 5 12 10 9 6 -3 10 -10 10 -16z"/>
</g>
</svg>
